{
  "accessors": [
    {
      "bufferView": 2,
      "componentType": 5126,
      "count": 1192,
      "max": [
        1.8557020425796509,
        1.255046010017395,
        3.1193571090698242
      ],
      "min": [
        -1.789451003074646,
        0.0047389999963343143,
        -3.2488059997558594
      ],
      "type": "VEC3"
    },
    {
      "bufferView": 2,
      "byteOffset": 14304,
      "componentType": 5126,
      "count": 1192,
      "max": [
        0.9929424524307251,
        0.9999726414680481,
        0.99857467412948608
      ],
      "min": [
        -0.99386680126190186,
        -0.99997258186340332,
        -0.99811863899230957
      ],
      "type": "VEC3"
    },
    {
      "bufferView": 1,
      "componentType": 5126,
      "count": 1192,
      "max": [
        0.99586302042007446,
        2.2884690761566162
      ],
      "min": [
        0.018775999546051025,
        -1.8247189521789551
      ],
      "type": "VEC2"
    },
    {
      "bufferView": 1,
      "byteOffset": 9536,
      "componentType": 5126,
      "count": 1192,
      "max": [
        0.99586302042007446,
        2.2884690761566162
      ],
      "min": [
        0.018775999546051025,
        -1.8247189521789551
      ],
      "type": "VEC2"
    },
    {
      "bufferView": 1,
      "byteOffset": 19072,
      "componentType": 5126,
      "count": 1192,
      "max": [
        0.99586302042007446,
        2.2884690761566162
      ],
      "min": [
        0.018775999546051025,
        -1.8247189521789551
      ],
      "type": "VEC2"
    },
    {
      "bufferView": 0,
      "componentType": 5125,
      "count": 3264,
      "max": [
        1191
      ],
      "min": [
        0
      ],
      "type": "SCALAR"
    },
    {
      "bufferView": 2,
      "byteOffset": 28608,
      "componentType": 5126,
      "count": 3916,
      "max": [
        1.569254994392395,
        2.0021789073944092,
        3.5732929706573486
      ],
      "min": [
        -1.4248440265655518,
        0.68388301134109497,
        -2.8613440990447998
      ],
      "type": "VEC3"
    },
    {
      "bufferView": 2,
      "byteOffset": 75600,
      "componentType": 5126,
      "count": 3916,
      "max": [
        0.99991470575332642,
        0.99994194507598877,
        0.99999445676803589
      ],
      "min": [
        -0.99990087747573853,
        -0.99994027614593506,
        -0.99999439716339111
      ],
      "type": "VEC3"
    },
    {
      "bufferView": 1,
      "byteOffset": 28608,
      "componentType": 5126,
      "count": 3916,
      "max": [
        0.99303501844406128,
        1.6097689867019653
      ],
      "min": [
        -3.5621809959411621,
        -2.6097760200500488
      ],
      "type": "VEC2"
    },
    {
      "bufferView": 1,
      "byteOffset": 59936,
      "componentType": 5126,
      "count": 3916,
      "max": [
        0.99303501844406128,
        1.6097689867019653
      ],
      "min": [
        -3.5621809959411621,
        -2.6097760200500488
      ],
      "type": "VEC2"
    },
    {
      "bufferView": 0,
      "byteOffset": 13056,
      "componentType": 5125,
      "count": 10305,
      "max": [
        3915
      ],
      "min": [
        0
      ],
      "type": "SCALAR"
    },
    {
      "bufferView": 2,
      "byteOffset": 122592,
      "componentType": 5126,
      "count": 3075,
      "max": [
        1.2774519920349121,
        3.0780320167541504,
        2.2704370021820068
      ],
      "min": [
        -1.2071969509124756,
        1.8022849559783936,
        -6.184563159942627
      ],
      "type": "VEC3"
    },
    {
      "bufferView": 2,
      "byteOffset": 159492,
      "componentType": 5126,
      "count": 3075,
      "max": [
        0.99989110231399536,
        0.99997156858444214,
        0.99992227554321289
      ],
      "min": [
        -0.99991381168365479,
        -0.99995541572570801,
        -0.99998205900192261
      ],
      "type": "VEC3"
    },
    {
      "bufferView": 1,
      "byteOffset": 91264,
      "componentType": 5126,
      "count": 3075,
      "max": [
        0.99823898077011108,
        0.99897998571395874
      ],
      "min": [
        0.00033599999733269215,
        0.00042999998549930751
      ],
      "type": "VEC2"
    },
    {
      "bufferView": 1,
      "byteOffset": 115864,
      "componentType": 5126,
      "count": 3075,
      "max": [
        0.99823898077011108,
        0.99897998571395874
      ],
      "min": [
        0.00033599999733269215,
        0.00042999998549930751
      ],
      "type": "VEC2"
    },
    {
      "bufferView": 0,
      "byteOffset": 54276,
      "componentType": 5125,
      "count": 8364,
      "max": [
        3074
      ],
      "min": [
        0
      ],
      "type": "SCALAR"
    },
    {
      "bufferView": 2,
      "byteOffset": 196392,
      "componentType": 5126,
      "count": 5180,
      "max": [
        1.9226030111312866,
        4.1495819091796875,
        3.8413081169128418
      ],
      "min": [
        -1.8482140302658081,
        0.40297400951385498,
        -3.4017770290374756
      ],
      "type": "VEC3"
    },
    {
      "bufferView": 2,
      "byteOffset": 258552,
      "componentType": 5126,
      "count": 5180,
      "max": [
        0.99997150897979736,
        0.99996131658554077,
        0.99994403123855591
      ],
      "min": [
        -0.99997884035110474,
        -0.9999726414680481,
        -0.99999630451202393
      ],
      "type": "VEC3"
    },
    {
      "bufferView": 1,
      "byteOffset": 140464,
      "componentType": 5126,
      "count": 5180,
      "max": [
        3.8515560626983643,
        1.5805449485778809
      ],
      "min": [
        -3.4234859943389893,
        -0.76462697982788086
      ],
      "type": "VEC2"
    },
    {
      "bufferView": 1,
      "byteOffset": 181904,
      "componentType": 5126,
      "count": 5180,
      "max": [
        3.8515560626983643,
        1.5805449485778809
      ],
      "min": [
        -3.4234859943389893,
        -0.76462697982788086
      ],
      "type": "VEC2"
    },
    {
      "bufferView": 1,
      "byteOffset": 223344,
      "componentType": 5126,
      "count": 5180,
      "max": [
        3.8515560626983643,
        1.5805449485778809
      ],
      "min": [
        -3.4234859943389893,
        -0.76462697982788086
      ],
      "type": "VEC2"
    },
    {
      "bufferView": 0,
      "byteOffset": 87732,
      "componentType": 5125,
      "count": 12927,
      "max": [
        5179
      ],
      "min": [
        0
      ],
      "type": "SCALAR"
    },
    {
      "bufferView": 2,
      "byteOffset": 320712,
      "componentType": 5126,
      "count": 6751,
      "max": [
        1.6804269552230835,
        1.2746579647064209,
        3.0560190677642822
      ],
      "min": [
        -1.6208770275115967,
        0.070519998669624329,
        -3.2544960975646973
      ],
      "type": "VEC3"
    },
    {
      "bufferView": 2,
      "byteOffset": 401724,
      "componentType": 5126,
      "count": 6751,
      "max": [
        0.99999469518661499,
        0.99997270107269287,
        0.999900221824646
      ],
      "min": [
        -0.99996858835220337,
        -0.99997270107269287,
        -0.99990105628967285
      ],
      "type": "VEC3"
    },
    {
      "bufferView": 1,
      "byteOffset": 264784,
      "componentType": 5126,
      "count": 6751,
      "max": [
        0.99575001001358032,
        0.98485398292541504
      ],
      "min": [
        0.016287000849843025,
        0.0067830001935362816
      ],
      "type": "VEC2"
    },
    {
      "bufferView": 1,
      "byteOffset": 318792,
      "componentType": 5126,
      "count": 6751,
      "max": [
        0.99575001001358032,
        0.98485398292541504
      ],
      "min": [
        0.016287000849843025,
        0.0067830001935362816
      ],
      "type": "VEC2"
    },
    {
      "bufferView": 1,
      "byteOffset": 372800,
      "componentType": 5126,
      "count": 6751,
      "max": [
        0.99575001001358032,
        0.98485398292541504
      ],
      "min": [
        0.016287000849843025,
        0.0067830001935362816
      ],
      "type": "VEC2"
    },
    {
      "bufferView": 0,
      "byteOffset": 139440,
      "componentType": 5125,
      "count": 16749,
      "max": [
        6750
      ],
      "min": [
        0
      ],
      "type": "SCALAR"
    }
  ],
  "asset": {
    "extras": {
      "author": "WillTheArtist (https://sketchfab.com/willprogamer)",
      "license": "CC-BY-4.0 (http://creativecommons.org/licenses/by/4.0/)",
      "source": "https://sketchfab.com/3d-models/german-panzer-tank-468e585df1b04c859eb6972614a7d8a4",
      "title": "German-panzer tank"
    },
    "generator": "Sketchfab-8.59.0",
    "version": "2.0"
  },
  "bufferViews": [
    {
      "buffer": 0,
      "byteLength": 206436,
      "byteOffset": 0,
      "name": "floatBufferViews",
      "target": 34963
    },
    {
      "buffer": 0,
      "byteLength": 426808,
      "byteOffset": 206436,
      "byteStride": 8,
      "name": "floatBufferViews",
      "target": 34962
    },
    {
      "buffer": 0,
      "byteLength": 482736,
      "byteOffset": 633244,
      "byteStride": 12,
      "name": "floatBufferViews",
      "target": 34962
    }
  ],
  "buffers": [
    {
      "byteLength": 1115980,
      "uri": "panzer.bin"
    }
  ],
  "images": [
    {
      "uri": "textures/Track_baseColor.jpeg"
    },
    {
      "uri": "textures/Turret_baseColor.jpeg"
    },
    {
      "uri": "textures/Turret_2_baseColor.jpeg"
    },
    {
      "uri": "textures/Body1_baseColor.jpeg"
    },
    {
      "uri": "textures/Body2_baseColor.jpeg"
    }
  ],
  "materials": [
    {
      "doubleSided": true,
      "emissiveFactor": [
        0,
        0,
        0
      ],
      "name": "Track",
      "pbrMetallicRoughness": {
        "baseColorFactor": [
          1,
          1,
          1,
          1
        ],
        "baseColorTexture": {
          "index": 0,
          "texCoord": 0
        },
        "metallicFactor": 0,
        "roughnessFactor": 0.97320976722551267
      }
    },
    {
      "doubleSided": true,
      "emissiveFactor": [
        0,
        0,
        0
      ],
      "name": "Turret",
      "pbrMetallicRoughness": {
        "baseColorFactor": [
          1,
          1,
          1,
          1
        ],
        "baseColorTexture": {
          "index": 1,
          "texCoord": 0
        },
        "metallicFactor": 0,
        "roughnessFactor": 0.99771507526900238
      }
    },
    {
      "doubleSided": true,
      "emissiveFactor": [
        0,
        0,
        0
      ],
      "name": "Turret_2",
      "pbrMetallicRoughness": {
        "baseColorFactor": [
          1,
          1,
          1,
          1
        ],
        "baseColorTexture": {
          "index": 2,
          "texCoord": 0
        },
        "metallicFactor": 0,
        "roughnessFactor": 0.99771507526900238
      }
    },
    {
      "doubleSided": true,
      "emissiveFactor": [
        0,
        0,
        0
      ],
      "name": "Body1",
      "pbrMetallicRoughness": {
        "baseColorFactor": [
          1,
          1,
          1,
          1
        ],
        "baseColorTexture": {
          "index": 3,
          "texCoord": 0
        },
        "metallicFactor": 0,
        "roughnessFactor": 0.99771507526900238
      }
    },
    {
      "doubleSided": true,
      "emissiveFactor": [
        0,
        0,
        0
      ],
      "name": "Body2",
      "pbrMetallicRoughness": {
        "baseColorFactor": [
          1,
          1,
          1,
          1
        ],
        "baseColorTexture": {
          "index": 4,
          "texCoord": 0
        },
        "metallicFactor": 0,
        "roughnessFactor": 0.99771507526900238
      }
    }
  ],
  "meshes": [
    {
      "name": "Track_Track_0",
      "primitives": [
        {
          "attributes": {
            "NORMAL": 1,
            "POSITION": 0,
            "TEXCOORD_0": 2,
            "TEXCOORD_1": 3,
            "TEXCOORD_2": 4
          },
          "indices": 5,
          "material": 0,
          "mode": 4
        }
      ]
    },
    {
      "name": "Turret_Turret_0",
      "primitives": [
        {
          "attributes": {
            "NORMAL": 7,
            "POSITION": 6,
            "TEXCOORD_0": 8,
            "TEXCOORD_1": 9
          },
          "indices": 10,
          "material": 1,
          "mode": 4
        }
      ]
    },
    {
      "name": "Turret_2_Turret 2_0",
      "primitives": [
        {
          "attributes": {
            "NORMAL": 12,
            "POSITION": 11,
            "TEXCOORD_0": 13,
            "TEXCOORD_1": 14
          },
          "indices": 15,
          "material": 2,
          "mode": 4
        }
      ]
    },
    {
      "name": "Body_1_Body1_0",
      "primitives": [
        {
          "attributes": {
            "NORMAL": 17,
            "POSITION": 16,
            "TEXCOORD_0": 18,
            "TEXCOORD_1": 19,
            "TEXCOORD_2": 20
          },
          "indices": 21,
          "material": 3,
          "mode": 4
        }
      ]
    },
    {
      "name": "Body_2_Body2_0",
      "primitives": [
        {
          "attributes": {
            "NORMAL": 23,
            "POSITION": 22,
            "TEXCOORD_0": 24,
            "TEXCOORD_1": 25,
            "TEXCOORD_2": 26
          },
          "indices": 27,
          "material": 4,
          "mode": 4
        }
      ]
    }
  ],
  "nodes": [
    {
      "children": [
        1
      ],
      "name": "RootNode (gltf orientation matrix)",
      "rotation": [
        -0.70710678118654746,
        -0,
        -0,
        0.70710678118654757
      ]
    },
    {
      "children": [
        2
      ],
      "name": "RootNode (model correction matrix)"
    },
    {
      "children": [
        3
      ],
      "matrix": [
        1,
        0,
        0,
        0,
        0,
        0,
        1,
        0,
        0,
        -1,
        0,
        0,
        0,
        0,
        0,
        1
      ],
      "name": "german-panzer-ww2-ausf-b.fbx"
    },
    {
      "children": [
        4,
        14,
        16,
        18,
        20,
        22,
        24
      ],
      "name": "RootNode"
    },
    {
      "children": [
        5,
        8,
        11
      ],
      "name": "LightPreset"
    },
    {
      "children": [
        6
      ],
      "matrix": [
        0.39812743125779582,
        -0.48951198989263978,
        -0.77580446004867565,
        0,
        0.77580447101894878,
        0.63097339305790778,
        0,
        0,
        0.48951197250637091,
        -0.60187256874220396,
        0.63097340654625289,
        0,
        29.812053680419922,
        24.246589660644531,
        0,
        1
      ],
      "name": "FillLight"
    },
    {
      "children": [
        7
      ],
      "matrix": [
        1,
        0,
        0,
        0,
        0,
        2.2204460492503131e-16,
        1,
        0,
        0,
        -1,
        2.2204460492503131e-16,
        0,
        0,
        0,
        0,
        1
      ],
      "name": ""
    },
    {
      "name": ""
    },
    {
      "children": [
        9
      ],
      "matrix": [
        0.81764503902267771,
        0.22988826758759479,
        0.52783328294754028,
        0,
        -0.52783329604015727,
        0.6654201836127478,
        0.52783329833590509,
        0,
        -0.22988823752638449,
        -0.71018825931322693,
        0.66542019399824448,
        0,
        -10.556666374206543,
        13.308403968811035,
        10.556666374206543,
        1
      ],
      "name": "KeyLight"
    },
    {
      "children": [
        10
      ],
      "matrix": [
        1,
        0,
        0,
        0,
        0,
        2.2204460492503131e-16,
        1,
        0,
        0,
        -1,
        2.2204460492503131e-16,
        0,
        0,
        0,
        0,
        1
      ],
      "name": ""
    },
    {
      "name": ""
    },
    {
      "children": [
        12
      ],
      "matrix": [
        -0.11775826290241342,
        0.79473636020334948,
        0.59542179107666016,
        0,
        -0.59542176616679665,
        0.42335035934785248,
        -0.68282310565391446,
        0,
        -0.79473637886598514,
        -0.43493515724849852,
        0.42335032431333408,
        0,
        -11.908434867858887,
        8.4670066833496094,
        -13.656462669372559,
        1
      ],
      "name": "BackLight"
    },
    {
      "children": [
        13
      ],
      "matrix": [
        1,
        0,
        0,
        0,
        0,
        2.2204460492503131e-16,
        1,
        0,
        0,
        -1,
        2.2204460492503131e-16,
        0,
        0,
        0,
        0,
        1
      ],
      "name": ""
    },
    {
      "name": ""
    },
    {
      "children": [
        15
      ],
      "name": "Track"
    },
    {
      "mesh": 0,
      "name": "Track_Track_0"
    },
    {
      "children": [
        17
      ],
      "name": "Turret"
    },
    {
      "mesh": 1,
      "name": "Turret_Turret_0"
    },
    {
      "children": [
        19
      ],
      "matrix": [
        0.72708127231077424,
        -0.40470400862177996,
        0.5545876746380215,
        0,
        0.32574133839914171,
        0.91442818137243376,
        0.24023671986155504,
        0,
        -0.60435536227693187,
        0.0059805114635503309,
        0.79669243097305298,
        0,
        -5.9055628776550293,
        6.6346197128295898,
        -5.8476200103759766,
        1
      ],
      "name": "Camera_Perspective6"
    },
    {
      "name": ""
    },
    {
      "children": [
        21
      ],
      "matrix": [
        1,
        0,
        0,
        0,
        0,
        1,
        0,
        0,
        0,
        0,
        1,
        0,
        0.076999999582767487,
        0.16040000319480896,
        0,
        1
      ],
      "name": "Turret_2"
    },
    {
      "mesh": 2,
      "name": "Turret_2_Turret 2_0"
    },
    {
      "children": [
        23
      ],
      "name": "Body_1"
    },
    {
      "mesh": 3,
      "name": "Body_1_Body1_0"
    },
    {
      "children": [
        25
      ],
      "name": "Body_2"
    },
    {
      "mesh": 4,
      "name": "Body_2_Body2_0"
    }
  ],
  "samplers": [
    {
      "magFilter": 9729,
      "minFilter": 9987,
      "wrapS": 10497,
      "wrapT": 10497
    }
  ],
  "scene": 0,
  "scenes": [
    {
      "name": "OSG_Scene",
      "nodes": [
        0
      ]
    }
  ],
  "textures": [
    {
      "sampler": 0,
      "source": 0
    },
    {
      "sampler": 0,
      "source": 1
    },
    {
      "sampler": 0,
      "source": 2
    },
    {
      "sampler": 0,
      "source": 3
    },
    {
      "sampler": 0,
      "source": 4
    }
  ]
}

