{"asset":{"version":"2.0","generator":"THREE.GLTFExporter"},"scenes":[{"nodes":[0],"name":"AuxScene"}],"scene":0,"nodes":[{"mesh":0}],"bufferViews":[{"buffer":0,"byteOffset":0,"byteLength":7056,"target":34962,"byteStride":12},{"buffer":0,"byteOffset":7056,"byteLength":7056,"target":34962,"byteStride":12}],"buffers":[{"byteLength":14112,"uri":"data:application/octet-stream;base64,"}],"accessors":[{"bufferView":0,"componentType":5126,"count":588,"max":[31.91608238220215,7.400000095367432,30.778911590576172],"min":[-29.68391990661621,0.10000000149011612,-30.821090698242188],"type":"VEC3"},{"bufferView":1,"componentType":5126,"count":588,"max":[0.9709883332252502,1,0.8994394540786743],"min":[-0.8699983954429626,0.18672679364681244,-0.6214941143989563],"type":"VEC3"}],"materials":[{"pbrMetallicRoughness":{"baseColorFactor":[0.5019607843137255,0.5019607843137255,0.5019607843137255,1],"metallicFactor":0,"roughnessFactor":1}}],"meshes":[{"primitives":[{"mode":4,"attributes":{"POSITION":0,"NORMAL":1},"material":0}]}]}